<svg width="1920" height="966" xmlns="http://www.w3.org/2000/svg"><g><path d="M-107,-25L-115,654L-80,490Z" fill="#aaeede" stroke="#aaeede"/><path d="M-107,-25L-80,490L-25,269Z" fill="#d0fad6" stroke="#d0fad6"/><path d="M-107,-25L-25,269L-16,26Z" fill="#f1ffdb" stroke="#f1ffdb"/><path d="M-107,-25L-16,26L57,-31Z" fill="#ffffe1" stroke="#ffffe1"/><path d="M-107,-25L57,-31L173,-42Z" fill="#fafde1" stroke="#fafde1"/><path d="M-107,-25L173,-42L337,-61Z" fill="#eff9df" stroke="#eff9df"/><path d="M57,-31L-16,26L71,60Z" fill="#f8fddd" stroke="#f8fddd"/><path d="M57,-31L71,60L173,-42Z" fill="#f3fadd" stroke="#f3fadd"/><path d="M173,-42L71,60L193,98Z" fill="#e7f8d8" stroke="#e7f8d8"/><path d="M173,-42L193,98L337,-61Z" fill="#e3f4d8" stroke="#e3f4d8"/><path d="M337,-61L193,98L434,43Z" fill="#d3f0d4" stroke="#d3f0d4"/><path d="M337,-61L434,43L542,-54Z" fill="#caead6" stroke="#caead6"/><path d="M337,-61L542,-54L627,-72Z" fill="#c2e7db" stroke="#c2e7db"/><path d="M337,-61L627,-72L926,-86Z" fill="#b2e1de" stroke="#b2e1de"/><path d="M542,-54L434,43L519,132Z" fill="#bbe7d3" stroke="#bbe7d3"/><path d="M542,-54L519,132L660,38Z" fill="#b2e4d5" stroke="#b2e4d5"/><path d="M542,-54L660,38L627,-72Z" fill="#b4e2da" stroke="#b4e2da"/><path d="M627,-72L660,38L815,-20Z" fill="#a9dedc" stroke="#a9dedc"/><path d="M627,-72L815,-20L926,-86Z" fill="#a0d9e0" stroke="#a0d9e0"/><path d="M815,-20L660,38L872,129Z" fill="#98dad8" stroke="#98dad8"/><path d="M815,-20L872,129L934,33Z" fill="#96d3d7" stroke="#96d3d7"/><path d="M815,-20L934,33L926,-86Z" fill="#9dd2dc" stroke="#9dd2dc"/><path d="M926,-86L934,33L1107,-23Z" fill="#9acbda" stroke="#9acbda"/><path d="M926,-86L1107,-23L1316,-58Z" fill="#97c2da" stroke="#97c2da"/><path d="M926,-86L1316,-58L1895,-81Z" fill="#94a9d1" stroke="#94a9d1"/><path d="M1107,-23L934,33L1144,69Z" fill="#94c6d5" stroke="#94c6d5"/><path d="M1107,-23L1144,69L1266,26Z" fill="#92bdd3" stroke="#92bdd3"/><path d="M1107,-23L1266,26L1316,-58Z" fill="#95b8d4" stroke="#95b8d4"/><path d="M1316,-58L1266,26L1374,54Z" fill="#93afcd" stroke="#93afcd"/><path d="M1316,-58L1374,54L1412,-31Z" fill="#94aacd" stroke="#94aacd"/><path d="M1316,-58L1412,-31L1530,-20Z" fill="#93a5cc" stroke="#93a5cc"/><path d="M1316,-58L1530,-20L1770,-62Z" fill="#9299c7" stroke="#9299c7"/><path d="M1316,-58L1770,-62L1895,-81Z" fill="#918ec3" stroke="#918ec3"/><path d="M1412,-31L1374,54L1530,-20Z" fill="#93a3c8" stroke="#93a3c8"/><path d="M1530,-20L1374,54L1543,168Z" fill="#889fc1" stroke="#889fc1"/><path d="M1530,-20L1543,168L1629,99Z" fill="#8497bc" stroke="#8497bc"/><path d="M1530,-20L1629,99L1704,36Z" fill="#8b91bd" stroke="#8b91bd"/><path d="M1530,-20L1704,36L1770,-62Z" fill="#918dbf" stroke="#918dbf"/><path d="M1770,-62L1704,36L1893,109Z" fill="#8b81b6" stroke="#8b81b6"/><path d="M1770,-62L1893,109L1895,-81Z" fill="#8f80b6" stroke="#8f80b6"/><path d="M1895,-81L1893,109L1983,-26Z" fill="#8f80b2" stroke="#8f80b2"/><path d="M1983,-26L1893,109L2002,108Z" fill="#8480ab" stroke="#8480ab"/><path d="M1983,-26L2002,108L2056,257Z" fill="#7b80a5" stroke="#7b80a5"/><path d="M-16,26L-25,269L27,211Z" fill="#e4ffd4" stroke="#e4ffd4"/><path d="M-16,26L27,211L71,60Z" fill="#ecfed8" stroke="#ecfed8"/><path d="M71,60L27,211L195,167Z" fill="#dbfbd2" stroke="#dbfbd2"/><path d="M71,60L195,167L193,98Z" fill="#dbf8d3" stroke="#dbf8d3"/><path d="M193,98L195,167L434,43Z" fill="#cdf2d0" stroke="#cdf2d0"/><path d="M434,43L195,167L415,279Z" fill="#baeec9" stroke="#baeec9"/><path d="M434,43L415,279L519,132Z" fill="#afe9ca" stroke="#afe9ca"/><path d="M519,132L415,279L555,218Z" fill="#9ee6c9" stroke="#9ee6c9"/><path d="M519,132L555,218L660,38Z" fill="#a3e4ce" stroke="#a3e4ce"/><path d="M660,38L555,218L706,224Z" fill="#96e1ce" stroke="#96e1ce"/><path d="M660,38L706,224L872,129Z" fill="#8edcd2" stroke="#8edcd2"/><path d="M872,129L706,224L844,279Z" fill="#7bd6ce" stroke="#7bd6ce"/><path d="M872,129L844,279L941,265Z" fill="#74cfcd" stroke="#74cfcd"/><path d="M872,129L941,265L934,33Z" fill="#85d0cf" stroke="#85d0cf"/><path d="M934,33L941,265L1065,283Z" fill="#7bccca" stroke="#7bccca"/><path d="M934,33L1065,283L1144,69Z" fill="#84c7ce" stroke="#84c7ce"/><path d="M1144,69L1065,283L1221,201Z" fill="#78c0c8" stroke="#78c0c8"/><path d="M1144,69L1221,201L1266,26Z" fill="#85bacc" stroke="#85bacc"/><path d="M1266,26L1221,201L1374,54Z" fill="#85b2c8" stroke="#85b2c8"/><path d="M1374,54L1221,201L1393,189Z" fill="#7caec3" stroke="#7caec3"/><path d="M1374,54L1393,189L1543,168Z" fill="#7da3be" stroke="#7da3be"/><path d="M1629,99L1543,168L1690,206Z" fill="#7891b4" stroke="#7891b4"/><path d="M1629,99L1690,206L1704,36Z" fill="#7e8cb5" stroke="#7e8cb5"/><path d="M1704,36L1690,206L1826,183Z" fill="#7986b0" stroke="#7986b0"/><path d="M1704,36L1826,183L1893,109Z" fill="#7e80af" stroke="#7e80af"/><path d="M1893,109L1826,183L1998,318Z" fill="#6c7fa5" stroke="#6c7fa5"/><path d="M1893,109L1998,318L2056,257Z" fill="#647ca2" stroke="#647ca2"/><path d="M1893,109L2056,257L2002,108Z" fill="#7480a3" stroke="#7480a3"/><path d="M-25,269L-80,490L-39,408Z" fill="#a6ecdd" stroke="#a6ecdd"/><path d="M-25,269L-39,408L120,406Z" fill="#abeeda" stroke="#abeeda"/><path d="M-25,269L120,406L27,211Z" fill="#bcf3d5" stroke="#bcf3d5"/><path d="M27,211L120,406L195,167Z" fill="#bdf3d2" stroke="#bdf3d2"/><path d="M195,167L120,406L205,417Z" fill="#a2e9d3" stroke="#a2e9d3"/><path d="M195,167L205,417L415,279Z" fill="#a2e9ce" stroke="#a2e9ce"/><path d="M415,279L205,417L366,428Z" fill="#82ddd0" stroke="#82ddd0"/><path d="M415,279L366,428L533,326Z" fill="#7ddbce" stroke="#7ddbce"/><path d="M415,279L533,326L555,218Z" fill="#8adfcc" stroke="#8adfcc"/><path d="M555,218L533,326L706,224Z" fill="#84ddcd" stroke="#84ddcd"/><path d="M706,224L533,326L707,402Z" fill="#6bd4d1" stroke="#6bd4d1"/><path d="M706,224L707,402L844,279Z" fill="#62d1d3" stroke="#62d1d3"/><path d="M844,279L707,402L859,319Z" fill="#56cad4" stroke="#56cad4"/><path d="M844,279L859,319L941,265Z" fill="#62c9d0" stroke="#62c9d0"/><path d="M941,265L859,319L981,359Z" fill="#58c3d1" stroke="#58c3d1"/><path d="M941,265L981,359L1065,283Z" fill="#5ac0d0" stroke="#5ac0d0"/><path d="M1065,283L981,359L1074,399Z" fill="#4bb8d1" stroke="#4bb8d1"/><path d="M1065,283L1074,399L1223,399Z" fill="#46b1d0" stroke="#46b1d0"/><path d="M1065,283L1223,399L1221,201Z" fill="#58b4cc" stroke="#58b4cc"/><path d="M1221,201L1223,399L1394,374Z" fill="#4ea6c8" stroke="#4ea6c8"/><path d="M1221,201L1394,374L1393,189Z" fill="#62a7c2" stroke="#62a7c2"/><path d="M1393,189L1394,374L1515,324Z" fill="#559ac0" stroke="#559ac0"/><path d="M1393,189L1515,324L1543,168Z" fill="#699bba" stroke="#699bba"/><path d="M1543,168L1515,324L1690,206Z" fill="#6791b6" stroke="#6791b6"/><path d="M1690,206L1515,324L1674,409Z" fill="#4e85b8" stroke="#4e85b8"/><path d="M1690,206L1674,409L1908,343Z" fill="#4b78b1" stroke="#4b78b1"/><path d="M1690,206L1908,343L1826,183Z" fill="#617bac" stroke="#617bac"/><path d="M1826,183L1908,343L1998,318Z" fill="#5577a9" stroke="#5577a9"/><path d="M2056,257L1998,318L2045,469Z" fill="#4071a6" stroke="#4071a6"/><path d="M2056,257L2045,469L2066,984Z" fill="#294da0" stroke="#294da0"/><path d="M-39,408L-80,490L102,540Z" fill="#a0dcd8" stroke="#a0dcd8"/><path d="M-39,408L102,540L120,406Z" fill="#9bded7" stroke="#9bded7"/><path d="M120,406L102,540L205,417Z" fill="#90dad4" stroke="#90dad4"/><path d="M205,417L102,540L223,538Z" fill="#8ad1d1" stroke="#8ad1d1"/><path d="M205,417L223,538L338,499Z" fill="#80cfcf" stroke="#80cfcf"/><path d="M205,417L338,499L366,428Z" fill="#7dd3cf" stroke="#7dd3cf"/><path d="M366,428L338,499L541,481Z" fill="#6ecacd" stroke="#6ecacd"/><path d="M366,428L541,481L533,326Z" fill="#6ad1d0" stroke="#6ad1d0"/><path d="M533,326L541,481L707,402Z" fill="#5ccdd3" stroke="#5ccdd3"/><path d="M707,402L541,481L647,514Z" fill="#53c1d1" stroke="#53c1d1"/><path d="M707,402L647,514L860,485Z" fill="#46bbd4" stroke="#46bbd4"/><path d="M707,402L860,485L859,319Z" fill="#45c2d6" stroke="#45c2d6"/><path d="M859,319L860,485L936,472Z" fill="#42b9d4" stroke="#42b9d4"/><path d="M859,319L936,472L981,359Z" fill="#44bdd5" stroke="#44bdd5"/><path d="M981,359L936,472L1074,399Z" fill="#3fb3d3" stroke="#3fb3d3"/><path d="M1074,399L936,472L1137,488Z" fill="#3ba8d0" stroke="#3ba8d0"/><path d="M1074,399L1137,488L1223,399Z" fill="#3aa6d0" stroke="#3aa6d0"/><path d="M1223,399L1137,488L1216,542Z" fill="#3699cc" stroke="#3699cc"/><path d="M1223,399L1216,542L1422,467Z" fill="#3691c8" stroke="#3691c8"/><path d="M1223,399L1422,467L1394,374Z" fill="#3995c7" stroke="#3995c7"/><path d="M1394,374L1422,467L1515,324Z" fill="#3a8fc4" stroke="#3a8fc4"/><path d="M1515,324L1422,467L1552,487Z" fill="#3784c0" stroke="#3784c0"/><path d="M1515,324L1552,487L1674,409Z" fill="#377fbc" stroke="#377fbc"/><path d="M1674,409L1552,487L1710,527Z" fill="#336db7" stroke="#336db7"/><path d="M1674,409L1710,527L1899,486Z" fill="#3262b1" stroke="#3262b1"/><path d="M1674,409L1899,486L1908,343Z" fill="#3568b1" stroke="#3568b1"/><path d="M1908,343L1899,486L2045,469Z" fill="#3265aa" stroke="#3265aa"/><path d="M1908,343L2045,469L1998,318Z" fill="#386eaa" stroke="#386eaa"/><path d="M-80,490L-115,654L102,540Z" fill="#9bced5" stroke="#9bced5"/><path d="M102,540L-115,654L96,668Z" fill="#95c0ce" stroke="#95c0ce"/><path d="M102,540L96,668L223,538Z" fill="#89c4cf" stroke="#89c4cf"/><path d="M223,538L96,668L272,708Z" fill="#81b4c7" stroke="#81b4c7"/><path d="M223,538L272,708L359,681Z" fill="#75afc4" stroke="#75afc4"/><path d="M223,538L359,681L338,499Z" fill="#75bdcb" stroke="#75bdcb"/><path d="M338,499L359,681L493,690Z" fill="#68aec3" stroke="#68aec3"/><path d="M338,499L493,690L541,481Z" fill="#63b9ca" stroke="#63b9ca"/><path d="M541,481L493,690L647,514Z" fill="#56b3cc" stroke="#56b3cc"/><path d="M647,514L493,690L682,638Z" fill="#4ea6c8" stroke="#4ea6c8"/><path d="M647,514L682,638L860,485Z" fill="#42afd0" stroke="#42afd0"/><path d="M860,485L682,638L855,688Z" fill="#399fcd" stroke="#399fcd"/><path d="M860,485L855,688L936,472Z" fill="#3aa4cf" stroke="#3aa4cf"/><path d="M936,472L855,688L942,706Z" fill="#3693c9" stroke="#3693c9"/><path d="M936,472L942,706L1084,628Z" fill="#3492ca" stroke="#3492ca"/><path d="M936,472L1084,628L1137,488Z" fill="#369bcd" stroke="#369bcd"/><path d="M1137,488L1084,628L1216,542Z" fill="#3290cb" stroke="#3290cb"/><path d="M1216,542L1084,628L1221,699Z" fill="#2f7fc4" stroke="#2f7fc4"/><path d="M1216,542L1221,699L1425,662Z" fill="#2e72bd" stroke="#2e72bd"/><path d="M1216,542L1425,662L1422,467Z" fill="#307bc1" stroke="#307bc1"/><path d="M1422,467L1425,662L1552,487Z" fill="#3074bd" stroke="#3074bd"/><path d="M1552,487L1425,662L1564,649Z" fill="#2c63b7" stroke="#2c63b7"/><path d="M1552,487L1564,649L1710,527Z" fill="#2e63b5" stroke="#2e63b5"/><path d="M1710,527L1564,649L1718,674Z" fill="#2b51ae" stroke="#2b51ae"/><path d="M1710,527L1718,674L1849,683Z" fill="#2a45a8" stroke="#2a45a8"/><path d="M1710,527L1849,683L1899,486Z" fill="#2b4eab" stroke="#2b4eab"/><path d="M1899,486L1849,683L1983,733Z" fill="#283fa0" stroke="#283fa0"/><path d="M1899,486L1983,733L2045,469Z" fill="#2a4fa4" stroke="#2a4fa4"/><path d="M2045,469L1983,733L2033,791Z" fill="#263898" stroke="#263898"/><path d="M2045,469L2033,791L2066,984Z" fill="#25258d" stroke="#25258d"/><path d="M-115,654L-88,862L21,875Z" fill="#9599be" stroke="#9599be"/><path d="M-115,654L21,875L96,668Z" fill="#97a8c3" stroke="#97a8c3"/><path d="M96,668L21,875L259,868Z" fill="#8692b7" stroke="#8692b7"/><path d="M96,668L259,868L272,708Z" fill="#7d9abb" stroke="#7d9abb"/><path d="M272,708L259,868L409,784Z" fill="#6f8db3" stroke="#6f8db3"/><path d="M272,708L409,784L359,681Z" fill="#6c99b9" stroke="#6c99b9"/><path d="M359,681L409,784L493,690Z" fill="#6397b9" stroke="#6397b9"/><path d="M493,690L409,784L515,878Z" fill="#5c86b3" stroke="#5c86b3"/><path d="M493,690L515,878L631,872Z" fill="#517bb1" stroke="#517bb1"/><path d="M493,690L631,872L682,638Z" fill="#4d8bbb" stroke="#4d8bbb"/><path d="M682,638L631,872L833,768Z" fill="#3e80bb" stroke="#3e80bb"/><path d="M682,638L833,768L855,688Z" fill="#388ac2" stroke="#388ac2"/><path d="M855,688L833,768L942,706Z" fill="#357ebf" stroke="#357ebf"/><path d="M942,706L833,768L917,829Z" fill="#3372b9" stroke="#3372b9"/><path d="M942,706L917,829L1139,830Z" fill="#3066b5" stroke="#3066b5"/><path d="M942,706L1139,830L1084,628Z" fill="#3072bb" stroke="#3072bb"/><path d="M1084,628L1139,830L1221,699Z" fill="#2d6cba" stroke="#2d6cba"/><path d="M1221,699L1139,830L1316,804Z" fill="#2c57b0" stroke="#2c57b0"/><path d="M1221,699L1316,804L1425,662Z" fill="#2c5ab2" stroke="#2c5ab2"/><path d="M1425,662L1316,804L1416,872Z" fill="#2a46a9" stroke="#2a46a9"/><path d="M1425,662L1416,872L1520,861Z" fill="#293ba3" stroke="#293ba3"/><path d="M1425,662L1520,861L1564,649Z" fill="#2a47a9" stroke="#2a47a9"/><path d="M1564,649L1520,861L1718,674Z" fill="#293da4" stroke="#293da4"/><path d="M1718,674L1520,861L1776,794Z" fill="#282b9b" stroke="#282b9b"/><path d="M1718,674L1776,794L1849,683Z" fill="#282e9d" stroke="#282e9d"/><path d="M1849,683L1776,794L1931,769Z" fill="#262596" stroke="#262596"/><path d="M1849,683L1931,769L1983,733Z" fill="#262995" stroke="#262995"/><path d="M1983,733L1931,769L2033,791Z" fill="#25218e" stroke="#25218e"/><path d="M-88,862L-21,1074L-34,1018Z" fill="#9180a8" stroke="#9180a8"/><path d="M-88,862L-34,1018L19,952Z" fill="#9280ac" stroke="#9280ac"/><path d="M-88,862L19,952L21,875Z" fill="#9382b1" stroke="#9382b1"/><path d="M21,875L19,952L196,1003Z" fill="#897ca9" stroke="#897ca9"/><path d="M21,875L196,1003L259,868Z" fill="#7f78a9" stroke="#7f78a9"/><path d="M259,868L196,1003L426,930Z" fill="#6e72a3" stroke="#6e72a3"/><path d="M259,868L426,930L409,784Z" fill="#6779a9" stroke="#6779a9"/><path d="M409,784L426,930L515,878Z" fill="#5d74aa" stroke="#5d74aa"/><path d="M515,878L426,930L469,1023Z" fill="#5969a1" stroke="#5969a1"/><path d="M515,878L469,1023L631,872Z" fill="#5066a4" stroke="#5066a4"/><path d="M631,872L469,1023L696,1028Z" fill="#4863a0" stroke="#4863a0"/><path d="M631,872L696,1028L774,974Z" fill="#3b5ea4" stroke="#3b5ea4"/><path d="M631,872L774,974L833,768Z" fill="#3865af" stroke="#3865af"/><path d="M833,768L774,974L917,829Z" fill="#3361b0" stroke="#3361b0"/><path d="M917,829L774,974L949,982Z" fill="#3153a7" stroke="#3153a7"/><path d="M917,829L949,982L1139,830Z" fill="#2e51ab" stroke="#2e51ab"/><path d="M1139,830L949,982L1142,1018Z" fill="#2b45a2" stroke="#2b45a2"/><path d="M1139,830L1142,1018L1242,930Z" fill="#293ea2" stroke="#293ea2"/><path d="M1139,830L1242,930L1316,804Z" fill="#2a44a7" stroke="#2a44a7"/><path d="M1316,804L1242,930L1416,872Z" fill="#2938a2" stroke="#2938a2"/><path d="M1416,872L1242,930L1403,969Z" fill="#272c9a" stroke="#272c9a"/><path d="M1416,872L1403,969L1520,861Z" fill="#272598" stroke="#272598"/><path d="M1520,861L1403,969L1575,963Z" fill="#261e92" stroke="#261e92"/><path d="M1520,861L1575,963L1776,794Z" fill="#261a93" stroke="#261a93"/><path d="M1776,794L1575,963L1764,941Z" fill="#250c8c" stroke="#250c8c"/><path d="M1776,794L1764,941L1931,769Z" fill="#25118e" stroke="#25118e"/><path d="M1931,769L1764,941L1918,1032Z" fill="#230083" stroke="#230083"/><path d="M1931,769L1918,1032L2033,791Z" fill="#230a84" stroke="#230a84"/><path d="M2033,791L1918,1032L2066,984Z" fill="#21007a" stroke="#21007a"/><path d="M-34,1018L-21,1074L19,952Z" fill="#9180a4" stroke="#9180a4"/><path d="M19,952L-21,1074L196,1003Z" fill="#897da2" stroke="#897da2"/><path d="M196,1003L-21,1074L85,1174Z" fill="#857c99" stroke="#857c99"/><path d="M196,1003L85,1174L261,1181Z" fill="#797792" stroke="#797792"/><path d="M196,1003L261,1181L388,1107Z" fill="#6d7291" stroke="#6d7291"/><path d="M196,1003L388,1107L426,930Z" fill="#687099" stroke="#687099"/><path d="M426,930L388,1107L469,1023Z" fill="#5c6b98" stroke="#5c6b98"/><path d="M469,1023L388,1107L552,1103Z" fill="#566992" stroke="#566992"/><path d="M469,1023L552,1103L696,1028Z" fill="#496497" stroke="#496497"/><path d="M696,1028L552,1103L615,1130Z" fill="#436294" stroke="#436294"/><path d="M696,1028L615,1130L768,1120Z" fill="#3a5f95" stroke="#3a5f95"/><path d="M696,1028L768,1120L774,974Z" fill="#345c9c" stroke="#345c9c"/><path d="M774,974L768,1120L949,982Z" fill="#30579d" stroke="#30579d"/><path d="M949,982L768,1120L1022,1083Z" fill="#2d5198" stroke="#2d5198"/><path d="M949,982L1022,1083L1142,1018Z" fill="#2a489a" stroke="#2a489a"/><path d="M1142,1018L1022,1083L1104,1162Z" fill="#274492" stroke="#274492"/><path d="M1142,1018L1104,1162L1307,1067Z" fill="#253d90" stroke="#253d90"/><path d="M1142,1018L1307,1067L1242,930Z" fill="#273897" stroke="#273897"/><path d="M1242,930L1307,1067L1403,969Z" fill="#263095" stroke="#263095"/><path d="M1403,969L1307,1067L1377,1121Z" fill="#242b8b" stroke="#242b8b"/><path d="M1403,969L1377,1121L1524,1151Z" fill="#232485" stroke="#232485"/><path d="M1403,969L1524,1151L1575,963Z" fill="#241e87" stroke="#241e87"/><path d="M1575,963L1524,1151L1716,1155Z" fill="#22147c" stroke="#22147c"/><path d="M1575,963L1716,1155L1764,941Z" fill="#220c80" stroke="#220c80"/><path d="M1764,941L1716,1155L1845,1090Z" fill="#210377" stroke="#210377"/><path d="M1764,941L1845,1090L1918,1032Z" fill="#210078" stroke="#210078"/><path d="M1918,1032L1845,1090L2044,1125Z" fill="#1f006d" stroke="#1f006d"/><path d="M1918,1032L2044,1125L2066,984Z" fill="#1f006e" stroke="#1f006e"/><path d="M261,1181L1716,1155L1104,1162Z" fill="#28498a" stroke="#28498a"/><path d="M261,1181L1104,1162L615,1130Z" fill="#3c608d" stroke="#3c608d"/><path d="M261,1181L615,1130L388,1107Z" fill="#5b6c8a" stroke="#5b6c8a"/><path d="M388,1107L615,1130L552,1103Z" fill="#4f678f" stroke="#4f678f"/><path d="M615,1130L1104,1162L768,1120Z" fill="#2e5791" stroke="#2e5791"/><path d="M768,1120L1104,1162L1022,1083Z" fill="#2a4d90" stroke="#2a4d90"/><path d="M1104,1162L1716,1155L1524,1151Z" fill="#22237c" stroke="#22237c"/><path d="M1104,1162L1524,1151L1377,1121Z" fill="#232e82" stroke="#232e82"/><path d="M1104,1162L1377,1121L1307,1067Z" fill="#243589" stroke="#243589"/><path d="M1716,1155L2044,1125L1845,1090Z" fill="#1e006c" stroke="#1e006c"/></g></svg>